# xmcd
#
# Track frame offsets:
#	150
#	18445
#	33023
#	52185
#	69002
#	87874
#	108712
#	128629
#	154124
#	167713
#	175091
#	194588
#	211819
#
# Disc length: 3067 seconds
#
# Revision: 0
# Processed by: cddbd v1.5.1PL0 Copyright (c) Steve Scherf et al.
# Submitted via: dBpowerAMP V4.0
#
DISCID=a60bf90d
DTITLE=Donel Jones - Where I Wanna Be
DYEAR=1900
DGENRE=R&B
TTITLE0=U Know What's Up
TTITLE1=Shorty [Got Her Eyes on Me]
TTITLE2=Where I Wanna Be
TTITLE3=Have You Seen Her?
TTITLE4=This Luv
TTITLE5=All Her Love
TTITLE6=It's Alright
TTITLE7=Think About It (Don't Call My Crib)
TTITLE8=He Won't Hurt You
TTITLE9=Pushin'
TTITLE10=I Wanna Luv U
TTITLE11=When I Was Down
TTITLE12=U Know What's Up {Featuring Left-Eye][*]
EXTD=Where I Wanna Be, Donel Jones
EXTT0=
EXTT1=
EXTT2=
EXTT3=
EXTT4=
EXTT5=
EXTT6=
EXTT7=
EXTT8=
EXTT9=
EXTT10=
EXTT11=
EXTT12=
PLAYORDER=
